HIERARCHY
ROOT Hips
{
	OFFSET	0.00	0.00	0.00
	CHANNELS 6 Xposition Yposition Zposition Zrotation Xrotation Yrotation
	JOINT LeftUpLeg
	{
		OFFSET	 0.126116	-0.014019	-0.065224
		CHANNELS 3 Zrotation Xrotation Yrotation
		JOINT LeftLeg
		{
			OFFSET	 0.000000	 0.000000	 0.569914
			CHANNELS 3 Zrotation Xrotation Yrotation
			JOINT LeftFoot
			{
				OFFSET	 0.000000	 0.000000	 0.544423
				CHANNELS 3 Zrotation Xrotation Yrotation
				JOINT LeftToeBase
				{
					OFFSET	 0.000000	 0.000000	 0.207117
					CHANNELS 3 Zrotation Xrotation Yrotation
					End Site
					{
						OFFSET	 0.000000	 0.000000	 0.207117
					}
				}
			}
		}
	}
	JOINT RightUpLeg
	{
		OFFSET	-0.124023	-0.008373	-0.065224
		CHANNELS 3 Zrotation Xrotation Yrotation
		JOINT RightLeg
		{
			OFFSET	 0.000000	 0.000000	 0.570047
			CHANNELS 3 Zrotation Xrotation Yrotation
			JOINT RightFoot
			{
				OFFSET	 0.000000	 0.000000	 0.544354
				CHANNELS 3 Zrotation Xrotation Yrotation
				JOINT RightToeBase
				{
					OFFSET	 0.000000	 0.000000	 0.207540
					CHANNELS 3 Zrotation Xrotation Yrotation
					End Site
					{
						OFFSET	 0.000000	 0.000000	 0.207540
					}
				}
			}
		}
	}
	JOINT Spine
	{
		OFFSET	 0.000184	-0.007763	 0.117403
		CHANNELS 3 Zrotation Xrotation Yrotation
		JOINT Spine1
		{
			OFFSET	 0.000000	 0.000000	 0.137269
			CHANNELS 3 Zrotation Xrotation Yrotation
			JOINT Spine2
			{
				OFFSET	 0.000000	 0.000000	 0.156879
				CHANNELS 3 Zrotation Xrotation Yrotation
				JOINT LeftShoulder
				{
					OFFSET	 0.080501	-0.002496	 0.160144
					CHANNELS 3 Zrotation Xrotation Yrotation
					JOINT LeftArm
					{
						OFFSET	 0.000000	 0.000000	 0.164363
						CHANNELS 3 Zrotation Xrotation Yrotation
						JOINT LeftForeArm
						{
							OFFSET	 0.000000	 0.000000	 0.364576
							CHANNELS 3 Zrotation Xrotation Yrotation
							JOINT LeftHand
							{
								OFFSET	 0.000000	 0.000000	 0.360812
								CHANNELS 3 Zrotation Xrotation Yrotation
								JOINT LeftHandIndex1
								{
									OFFSET	 0.000000	 0.000000	 0.086006
									CHANNELS 3 Zrotation Xrotation Yrotation
									JOINT LeftHandIndex2
									{
										OFFSET	 0.000000	 0.000000	 0.047236
										CHANNELS 3 Zrotation Xrotation Yrotation
										JOINT LeftHandIndex3
										{
											OFFSET	-0.004284	-0.000551	 0.038166
											CHANNELS 3 Zrotation Xrotation Yrotation
											End Site
											{
												OFFSET	-0.004284	-0.000551	 0.038166
											}
										}
									}
								}
							}
						}
					}
				}
				JOINT Neck
				{
					OFFSET	 0.000000	 0.000000	 0.176489
					CHANNELS 3 Zrotation Xrotation Yrotation
					JOINT Head
					{
						OFFSET	 0.000000	-0.001747	 0.077940
						CHANNELS 3 Zrotation Xrotation Yrotation
						End Site
						{
							OFFSET	 0.000000	-0.001747	 0.077940
						}
					}
				}
				JOINT RightShoulder
				{
					OFFSET	-0.080363	 0.000306	 0.159706
					CHANNELS 3 Zrotation Xrotation Yrotation
					JOINT RightArm
					{
						OFFSET	 0.000000	 0.000000	 0.164196
						CHANNELS 3 Zrotation Xrotation Yrotation
						JOINT RightForeArm
						{
							OFFSET	 0.000000	 0.000000	 0.365611
							CHANNELS 3 Zrotation Xrotation Yrotation
							JOINT RightHand
							{
								OFFSET	 0.000000	 0.000000	 0.360648
								CHANNELS 3 Zrotation Xrotation Yrotation
								JOINT RightHandIndex1
								{
									OFFSET	 0.000000	 0.000000	 0.069977
									CHANNELS 3 Zrotation Xrotation Yrotation
									JOINT RightHandIndex2
									{
										OFFSET	 0.000000	 0.000000	 0.052305
										CHANNELS 3 Zrotation Xrotation Yrotation
										JOINT RightHandIndex3
										{
											OFFSET	 0.009002	-0.000782	 0.042196
											CHANNELS 3 Zrotation Xrotation Yrotation
											End Site
											{
												OFFSET	 0.009002	-0.000782	 0.042196
											}
										}
									}
								}
							}
						}
					}
				}
			}
		}
	}
}
MOTION
Frames:    9
Frame Time: 0.03333334
-2.375868	-16.458450	 1.087502	-18.557500	 9.426098	 3.095931	 5.596974	-20.601030	 175.433000	-4.283864	-36.346770	-1.025650	-1.192102	 83.521950	-0.513243	-2.332719	 36.569380	-0.187214	-1.961179	-22.574590	-178.944200	-2.015998	-40.398070	-0.950985	-1.522817	 86.934840	 0.751734	 2.393219	 26.206220	-0.046550	 8.145736	 4.406046	-1.619838	 13.683070	 2.928566	-1.945681	 16.056020	 1.181937	 0.902595	-101.511600	 88.592350	-167.570600	 54.547550	 68.116670	-64.449360	-4.862252	-4.310961	-17.726430	 5.412890	-26.803630	-5.943771	-2.039607	-11.196430	 7.075557	-5.213516	-0.193813	 3.566525	-1.378229	 35.397820	-2.634230	 0.720908	 1.327358	 0.645019	 4.366613	 2.216600	-0.020505	 96.602720	 87.896800	 170.243800	-50.850350	 75.744900	 64.229810	-2.115440	-12.761660	 23.236220	-21.447150	-27.477540	 10.777880	-7.422421	-4.210948	-37.093820	 5.070815	-0.697434	-9.399699	-2.350882	 35.473990	 5.254307
-2.377442	-16.460260	 1.087872	-18.506180	 9.202977	 3.028794	 5.508176	-20.353600	 175.400300	-4.326613	-36.467870	-1.110904	-1.251347	 83.621830	-0.565606	-2.330053	 36.865190	-0.194579	-1.806267	-22.056210	-178.964700	-1.968816	-39.850460	-0.835562	-1.520114	 86.569090	 0.866186	 2.394709	 25.758170	-0.055962	 8.080682	 4.374537	-1.603581	 13.648610	 2.953283	-1.952980	 16.093620	 1.155589	 0.908451	-101.267700	 88.602680	-167.902300	 53.908940	 68.280490	-63.658890	-4.778129	-4.277537	-17.193680	 5.617749	-26.851800	-5.939280	-2.637210	-11.497340	 5.663789	-5.213516	-0.193813	 3.566525	-1.378229	 35.397820	-2.634230	 0.765679	 1.440717	 0.688660	 4.445674	 2.373106	 0.041844	 96.711010	 87.922180	 170.132800	-51.598650	 75.661680	 64.865440	-2.341375	-12.720420	 23.119480	-21.470090	-27.512300	 10.779830	-7.376307	-4.247466	-36.947960	 5.070815	-0.697434	-9.399699	-2.350882	 35.473990	 5.254307
-2.381341	-16.464010	 1.087347	-18.133320	 8.947011	 2.860901	 5.341941	-19.983350	 175.363800	-4.234652	-36.483990	-1.154189	-1.334899	 83.784100	-0.547397	-2.326179	 37.284100	-0.205083	-1.739895	-20.561030	-178.981200	-1.550471	-38.040190	-0.554833	-1.277549	 86.435520	 0.977815	 2.393591	 26.094880	-0.048898	 7.854826	 4.068351	-1.532641	 13.467690	 2.989572	-1.946572	 16.080230	 1.164108	 0.906485	-100.616700	 88.614780	-168.754700	 53.130930	 68.633490	-62.663780	-4.663209	-4.237313	-16.356270	 6.005814	-26.966430	-5.931260	-3.493998	-11.865320	 3.664340	-5.213516	-0.193813	 3.566525	-1.378229	 35.397820	-2.634230	 0.751844	 1.644210	 0.809887	 4.564497	 2.803736	-0.087954	 97.023750	 87.989880	 169.809000	-52.453010	 75.670080	 65.328450	-2.622605	-12.662510	 22.964210	-21.485570	-27.601750	 10.787120	-7.272576	-4.210853	-36.709540	 5.070815	-0.697434	-9.399699	-2.350882	 35.473990	 5.254307
-2.385562	-16.467120	 1.087270	-17.721610	 8.867923	 2.761881	 5.128451	-19.647660	 175.292100	-4.078173	-36.328270	-1.176603	-1.404604	 83.763850	-0.521437	-2.323123	 37.605720	-0.213213	-1.965257	-19.322700	-179.159700	-1.096413	-36.234070	-0.444843	-1.413028	 86.482250	 1.299363	 2.390654	 26.922070	-0.031425	 7.638987	 3.692549	-1.572016	 13.280420	 2.993887	-1.920659	 16.015960	 1.192936	 0.898770	-99.726980	 88.567420	-169.798900	 52.685160	 69.072010	-62.230670	-4.721478	-4.224050	-15.722260	 6.380750	-27.106180	-5.928482	-3.304961	-11.954590	 4.100065	-5.213516	-0.193813	 3.566525	-1.378229	 35.397820	-2.634230	 0.728501	 1.821460	 0.965704	 4.633645	 3.252970	-0.242005	 97.561540	 88.104320	 169.268300	-52.948230	 75.759760	 65.359610	-2.809697	-12.607620	 22.840700	-21.468570	-27.724040	 10.799110	-7.168144	-4.098774	-36.525290	 5.070815	-0.697434	-9.399699	-2.350882	 35.473990	 5.254307
-2.389344	-16.469020	 1.087496	-17.694540	 8.848397	 3.072245	 4.949346	-19.355040	 174.836700	-4.064942	-36.025520	-1.280273	-1.468770	 83.555660	-0.622435	-2.322269	 37.694860	-0.215469	-2.269956	-18.665770	-179.641100	-1.168691	-35.155170	-0.699001	-1.721061	 86.343930	 1.262202	 2.395386	 25.545630	-0.060405	 7.577384	 3.379122	-2.022363	 13.247950	 2.928915	-1.985157	 15.946640	 1.179656	 0.896684	-98.826160	 88.421820	-170.717900	 52.431210	 69.669690	-62.270380	-5.039053	-4.271323	-15.395760	 6.769171	-27.277540	-5.928215	-3.266419	-12.023740	 4.187671	-5.213516	-0.193813	 3.566525	-1.378229	 35.397820	-2.634230	 0.806772	 2.018563	 1.110441	 4.617362	 3.448637	-0.168679	 98.334710	 88.274670	 168.545200	-53.259150	 75.838290	 65.300570	-2.931104	-12.547280	 22.729650	-21.420480	-27.883250	 10.814580	-7.083854	-3.939242	-36.427830	 5.070815	-0.697434	-9.399699	-2.350882	 35.473990	 5.254307
-2.392357	-16.470540	 1.087872	-18.246160	 8.890767	 3.300759	 4.911487	-19.066730	 174.739500	-4.296980	-35.581520	-1.419564	-1.511000	 83.278710	-0.815045	-2.322965	 37.622850	-0.213643	-2.439986	-18.410140	-179.860700	-1.629895	-34.611780	-1.072015	-2.235200	 86.072050	 1.225942	 2.397732	 24.756500	-0.076808	 7.700509	 2.993122	-2.197418	 13.335040	 2.753094	-1.995559	 15.860380	 1.026006	 0.913109	-98.795430	 88.372380	-170.677600	 52.215050	 70.280140	-62.071390	-5.735811	-4.287012	-15.580730	 6.663294	-27.474450	-5.942568	-3.704825	-12.566680	 3.173518	-5.213516	-0.193813	 3.566525	-1.378229	 35.397820	-2.634230	 0.967602	 2.236552	 1.131366	 4.545470	 3.434580	-0.202905	 98.227850	 88.326610	 168.788500	-53.267270	 75.851330	 65.115110	-3.090271	-12.513480	 22.599160	-21.438110	-28.086350	 10.832800	-7.016879	-3.775912	-36.377580	 5.070815	-0.697434	-9.399699	-2.350882	 35.473990	 5.254307
-2.394878	-16.471490	 1.088423	-18.931120	 8.897284	 2.918694	 5.040052	-18.533650	 175.077000	-4.627245	-34.981660	-1.489534	-1.559509	 83.009580	-0.927792	-2.324473	 37.464620	-0.209636	-2.466537	-18.544330	-179.524000	-1.899659	-34.450600	-1.216505	-2.557816	 86.051570	 1.337929	 2.397340	 24.898560	-0.073868	 7.822381	 2.821507	-1.673400	 13.312720	 2.525743	-1.763762	 15.697670	 0.733394	 0.943822	-99.240620	 88.419220	-170.168800	 52.996460	 70.268910	-62.567860	-6.456537	-4.202845	-16.491430	 5.711997	-27.713410	-5.975700	-3.882572	-13.050360	 2.768202	-5.213516	-0.193813	 3.566525	-1.378229	 35.397820	-2.634230	 1.083255	 2.238439	 1.010137	 4.486012	 3.538167	-0.471304	 97.648770	 88.272630	 169.457800	-52.975250	 75.789120	 64.812630	-3.302664	-12.500590	 22.432300	-21.524360	-28.347360	 10.856320	-6.973103	-3.653128	-36.356750	 5.070815	-0.697434	-9.399699	-2.350882	 35.473990	 5.254307
-2.396812	-16.471830	 1.089127	-19.208100	 8.877594	 2.595694	 5.116612	-18.100200	 175.344700	-4.752201	-34.407520	-1.469721	-1.628882	 82.877590	-0.893823	-2.326020	 37.301150	-0.205511	-2.467788	-18.616200	-179.318800	-1.908953	-34.531550	-1.208530	-2.659154	 86.052650	 1.455195	 2.396607	 25.145780	-0.068737	 7.735119	 2.864701	-1.342265	 13.118430	 2.350868	-1.585632	 15.498060	 0.491405	 0.964481	-99.443700	 88.444300	-169.946300	 54.504810	 69.619980	-63.884220	-6.312599	-4.123009	-17.177740	 4.992805	-27.968540	-6.003538	-3.716244	-12.770200	 3.146663	-5.213516	-0.193813	 3.566525	-1.378229	 35.397820	-2.634230	 1.110728	 2.182526	 0.950950	 4.463971	 3.616752	-0.576390	 97.589350	 88.237080	 169.473300	-52.622660	 75.686680	 64.585110	-3.494384	-12.487390	 22.260480	-21.613860	-28.618400	 10.882130	-6.970160	-3.628715	-36.367600	 5.070815	-0.697434	-9.399699	-2.350882	 35.473990	 5.254307
-2.398530	-16.472250	 1.089951	-19.211300	 8.899455	 2.434674	 5.132542	-17.849820	 175.431100	-4.740026	-33.964160	-1.421321	-1.694651	 82.815860	-0.806643	-2.326882	 37.209310	-0.203198	-2.502185	-18.555360	-179.298600	-1.810893	-34.703990	-1.168622	-2.724786	 86.056630	 1.584749	 2.395924	 25.374010	-0.063983	 7.481167	 2.843832	-1.328938	 12.798560	 2.227279	-1.466292	 15.238980	 0.303799	 0.973161	-98.793790	 88.360160	-170.659300	 56.281400	 68.667570	-65.747060	-5.270082	-4.214842	-17.599200	 5.005405	-28.302620	-6.024641	-3.516574	-12.046160	 3.610024	-5.213516	-0.193813	 3.566525	-1.378229	 35.397820	-2.634230	 1.098256	 2.195262	 1.007094	 4.447659	 3.634357	-0.494837	 98.221240	 88.308580	 168.762600	-51.877420	 75.573810	 63.975170	-3.653736	-12.475010	 22.104540	-21.674840	-28.957410	 10.916270	-7.006283	-3.695892	-36.410620	 5.070815	-0.697434	-9.399699	-2.350882	 35.473990	 5.254307
